<mxfile host="app.diagrams.net" modified="2022-05-04T10:03:53.182Z" agent="5.0 (Macintosh; Intel Mac OS X 10_15_7) AppleWebKit/537.36 (KHTML, like Gecko) Chrome/100.0.4896.127 Safari/537.36" etag="8r72d10zOn17NXu9-Dy0" version="17.5.0" type="github">
  <diagram id="iVlfPvvHxNKThmz7TXxH" name="Page-1">
    <mxGraphModel dx="885" dy="573" grid="1" gridSize="10" guides="1" tooltips="1" connect="1" arrows="1" fold="1" page="1" pageScale="1" pageWidth="827" pageHeight="1169" math="0" shadow="0">
      <root>
        <mxCell id="0" />
        <mxCell id="1" parent="0" />
        <mxCell id="pDqY7yo2lOEHYChbhnL6-1" value="PCPartpicker" style="rounded=0;whiteSpace=wrap;html=1;" vertex="1" parent="1">
          <mxGeometry x="40" y="40" width="120" height="40" as="geometry" />
        </mxCell>
      </root>
    </mxGraphModel>
  </diagram>
</mxfile>
